<?xml version="1.0" encoding="utf-8"?>
<!-- Generator: Adobe Illustrator 26.0.1, SVG Export Plug-In . SVG Version: 6.00 Build 0)  -->
<svg version="1.1"
	 id="svg2" xmlns:cc="http://creativecommons.org/ns#" xmlns:dc="http://purl.org/dc/elements/1.1/" xmlns:inkscape="http://www.inkscape.org/namespaces/inkscape" xmlns:rdf="http://www.w3.org/1999/02/22-rdf-syntax-ns#" xmlns:sodipodi="http://sodipodi.sourceforge.net/DTD/sodipodi-0.dtd" xmlns:svg="http://www.w3.org/2000/svg"
	 xmlns="http://www.w3.org/2000/svg" xmlns:xlink="http://www.w3.org/1999/xlink" x="0px" y="0px" viewBox="0 0 1602.7 741.7"
	 style="enable-background:new 0 0 1602.7 741.7;" xml:space="preserve">
<style type="text/css">
	.st0{fill:#565656;}
</style>
<defs>
	
		<inkscape:perspective  id="perspective10" inkscape:persp3d-origin="372.04724 : 350.78739 : 1" inkscape:vp_x="0 : 526.18109 : 1" inkscape:vp_y="0 : 1000 : 0" inkscape:vp_z="744.09448 : 526.18109 : 1" sodipodi:type="inkscape:persp3d">
		</inkscape:perspective>
	
		<inkscape:perspective  id="perspective2824" inkscape:persp3d-origin="0.5 : 0.33333333 : 1" inkscape:vp_x="0 : 0.5 : 1" inkscape:vp_y="0 : 1000 : 0" inkscape:vp_z="1 : 0.5 : 1" sodipodi:type="inkscape:persp3d">
		</inkscape:perspective>
</defs>
<sodipodi:namedview  bordercolor="#666666" borderopacity="1.0" id="base" inkscape:current-layer="layer1" inkscape:cx="625.17606" inkscape:cy="518.80927" inkscape:document-units="px" inkscape:pageopacity="0.0" inkscape:pageshadow="2" inkscape:window-height="749" inkscape:window-maximized="1" inkscape:window-width="1366" inkscape:window-x="-4" inkscape:window-y="-4" inkscape:zoom="0.35" pagecolor="#ffffff" showgrid="false">
	</sodipodi:namedview>
<g id="layer1" transform="translate(275.17606,-309.45844)" inkscape:groupmode="layer" inkscape:label="Ebene 1">
	<path class="st0" d="M100,972.8c-6.1-2.1-7.9-4.2-6.4-7.7c0.7-1.6,2-3,2.9-3c0.9,0,4.9,1.9,8.9,4.3c4,2.3,8.8,4.8,10.8,5.4l3.6,1.2
		l-4.4,0.1c-2.4,0-5.9,0.3-7.9,0.5C105.5,974,102.2,973.6,100,972.8L100,972.8z"/>
	<path class="st0" d="M86,962c-1.2-0.6-3.1-0.8-4.3-0.4c-1.5,0.4-2.7-0.2-3.8-2.1c-0.9-1.5-2.5-3-3.5-3.4
		c-2.4-0.8-7.5-8.3-10.3-15.3c-1.4-3.5-3.4-6-5.6-7.2c-4.1-2.1-4.3-3.1-1.2-4c3.6-1,4.3-6.8,1.2-10.7c-1.4-1.8-2.2-4-1.8-5.1
		c0.5-1.2-0.9-3.4-4.3-6.5c-4.3-4-5.1-5.5-5.3-9.7c-0.1-2.7-0.9-5.7-1.6-6.5c-1-1.1-1.2-4.9-0.6-12.4c0.6-8.2,0.2-13.3-1.3-20.3
		c-2.3-10.5-3.5-30-2.9-47.8c0.1-3.8-0.4-9-1.2-11.6c-1.9-6.3-10.7-14.2-21.6-19.4c-7.8-3.7-8.9-4.7-11.9-10.4
		c-1.8-3.5-5.4-8.7-7.8-11.6c-2.5-2.9-5.1-7.1-6-9.4c-2.6-7.3-7.1-14.5-10.2-16.4c-1.6-1-3.5-3.5-4.2-5.7c-1-3.5-0.8-4.4,2.5-8.8
		c3.6-4.7,3.6-4.9,1.2-5.5c-5.9-1.4-3.4-8.6,7.2-20.9c7.1-8.1,9.1-14.3,7.2-21.5c-0.7-2.7-1.4-5.6-1.5-6.3c-0.1-0.8-0.6-1.4-1.2-1.4
		s-0.5-1,0.2-2.2c1.1-1.9,0.8-2.4-1.8-3.5c-3.9-1.6-9.7,0-9.7,2.6c0,3.2-1.6,3.4-6.6,1c-2.7-1.3-5.5-2.3-6.3-2.3
		c-0.7,0-3.6-1.8-6.3-3.9c-2.7-2.2-5.7-4.4-6.5-5c-0.8-0.6-1.5-2.2-1.5-3.6c0-1.4-1.1-3.4-2.4-4.5c-1.3-1.1-3-3.7-3.8-5.8
		c-1-2.8-1.8-3.5-2.7-2.6c-2,1.8-4.9,1.5-12.1-1.4c-3.7-1.5-7.6-4.1-9.2-6.1c-1.5-1.9-4.3-4.2-6.3-5.2c-3.3-1.5-4.1-1.5-8.9,0.1
		l-5.3,1.8l-16.1-7.1c-9.9-4.4-17.6-8.6-20-10.9c-3.7-3.6-3.8-4-2.6-8.4c1.1-4.1,0.9-5.3-1.5-9.9c-1.5-2.9-4.9-7.4-7.5-9.9
		c-2.6-2.6-4.4-5.1-4-5.6c0.4-0.5-1.5-4.1-4-7.9c-2.9-4.3-5-9-5.5-12.4c-0.7-4.4-1.4-5.7-3.9-6.7c-2.6-1.1-3.3-0.9-4.8,0.9
		c-2.1,2.6-1.5,5.3,3.1,14.4c1.9,3.7,3.8,9.1,4.3,12.1c0.5,3,1.9,7.3,3.2,9.6c3,5.4,1.1,5.3-3.7-0.2c-2.8-3.3-3.6-5-3-7.1
		c0.6-2.2,0-3.2-2.9-5.2c-4.4-3-5.4-4.9-3.8-7.7c1-1.6,0.5-3.4-1.9-7.8c-2.5-4.4-3-6.6-2.4-9.9c1-5.4-1.6-10.2-6.6-12.1
		c-2.8-1.1-3.8-2.3-4.4-5.4c-0.4-2.2-1.2-5.6-1.7-7.6c-0.6-2-0.5-3.8,0.1-4.2c0.6-0.3,0.2-1.9-0.9-3.4c-1.6-2.2-1.7-3.3-0.6-5.5
		c0.8-1.5,1.1-3.3,0.6-3.9c-0.4-0.6,0.6-2.4,2.3-4.1s3.9-4.9,5-7.2c1-2.3,4.3-6.6,7.2-9.6c2.9-2.9,6.6-8.1,8.2-11.5
		c2.2-4.7,3.5-6.1,5.5-6.1c1.4,0,2.5,0.6,2.4,1.4c-0.4,3.2,2.4,2.2,5.4-1.9c1.8-2.4,2.8-4.6,2.2-4.8c-0.6-0.2-1.1-1.1-1.1-2
		s-2.5-3.9-5.6-6.6c-5.1-4.5-5.4-5.1-3.7-6.8c1.4-1.4,1.5-2.4,0.6-3.9c-1.6-2.6,0.9-8.5,3.7-8.5c1.1,0,1.5-0.4,0.8-0.8
		c-1.6-1-2.3-3.4-2-6.9c0.4-5.5-1-7.8-5.5-9.6c-2.4-0.9-6.1-2.9-8.2-4.3c-2.1-1.5-4.8-2.7-5.9-2.7c-1.2,0-6.4-1-11.7-2.2
		c-8.5-2-10-2.1-12.9-0.7c-6.1,2.9-12.5,4-15.2,2.7c-2-1-4.1-0.4-11.6,3.2c-5.1,2.4-11.1,4.8-13.4,5.2c-2.3,0.5-6.8,2-9.9,3.4
		c-8.8,4.1-21.5,8.2-25,8.1c-2.3,0-0.7-1,5.3-3.1c10.2-3.7,20.7-8.5,21.7-10c1.2-1.8-1.4-2.4-4.5-1.1c-2.3,1-3.7,0.9-6.4-0.4
		l-3.4-1.6l3.7-1.8c4.2-2,5.5-4.2,4.5-7.7c-0.9-3.4,4.2-5.9,15.3-7.4c6-0.8,10.5-2.2,13.5-4.1c5.4-3.3,4.5-5.9-1.3-3.7
		c-2.7,1-4.7,1-8.8,0.1c-4.9-1.2-5.1-1.4-2.9-2.9c3.7-2.5,11.3-4,16.4-3.2c3.2,0.5,5.8,0.1,8.5-1.1l3.9-1.8l-2.5-2.5
		c-1.4-1.4-2.5-2.8-2.5-3.1c0-1,7.3-3.1,10.9-3.1c1.8,0,6.8-1.2,11.1-2.7c4.3-1.5,14.1-3.5,21.9-4.5c12.6-1.6,15.3-1.6,24.7-0.2
		c5.8,0.9,13.9,1.9,17.9,2.3c4,0.4,11.1,1.7,15.7,2.8c10.8,2.7,17.8,2.7,29.9-0.1c5.3-1.2,10.7-2,11.9-1.6c1.3,0.4,3.4,0.1,4.7-0.5
		c1.9-0.9,3.3-0.8,6,0.5c2.4,1.1,5.4,1.5,9.4,1c4.3-0.5,8,0,13.4,1.7c4.1,1.3,8.7,2.3,10.2,2.3c2.6,0,2.6,0,0.3,1.6
		c-2.2,1.5-2.2,1.6-0.1,2.4c1.2,0.4,5.4,0.5,9.4,0.1c7.1-0.7,7.2-0.7,9.1,2.8l2,3.5l2.6-3c1.5-1.7,5-3.6,8.3-4.5
		c5-1.4,6.5-1.4,11.5,0c3.5,1,7.7,1.3,10.9,0.9c4-0.5,5.9-0.2,8.5,1.5c3.3,2.2,3.4,2.2,6.3,0.1c1.6-1.2,5-2.6,7.5-3.3
		c5.9-1.5,8-4.7,4.4-7c-2.5-1.6-2.4-1.7,4.2-4.7c4.9-2.2,7.2-2.7,8.1-1.8s1,1.8,0,3.5c-1.7,2.9,0.4,7.2,3,6.3c0.9-0.3,2.5-0.3,3.5,0
		c1.5,0.5,1.5,1-0.2,3.3c-4.7,6.5,5.8,4.6,12.8-2.3c2.9-2.8,7.3-3.7,11.5-2.2c2.7,0.9,2.4,1.7-2,6.2c-5.3,5.3-8,6.4-16,6.4
		c-3.9,0-8.4,0.8-10.5,1.8c-2.9,1.4-4.4,1.5-6.7,0.5c-4.3-1.8-5.8-0.3-2.7,2.7l2.6,2.6l-5.3,1.4c-2.9,0.8-7.7,1.4-10.7,1.5
		c-4.3,0.1-5.4,0.6-5.5,2.1c0,1.3-2.1,2.8-6.7,4.4c-14.7,5.5-27.2,15.4-22.6,18c0.8,0.5,2.2,2.2,3,3.9c0.9,1.9,2.7,3.2,4.8,3.6
		c1.9,0.3,6.6,2.1,10.6,3.9s8.9,3.6,10.9,4c5.5,1.1,5.5,1.2,3,7.1c-2.2,5.1-2.2,5.8-0.5,8.8c1,1.8,2.5,3.2,3.3,3.2
		c4-0.1,7.7-3.4,10-9c2.2-5.3,3.2-6.3,9.5-9.3c9.3-4.5,13.2-9,12.2-14.1c-0.7-3.3-0.3-4,2.7-6c1.9-1.3,4.5-4.3,5.7-6.7
		c2.7-5.4,7-7.3,14.2-6.2c6.4,1,14,4.7,14.9,7.3c0.4,1.1,0.1,3-0.7,4.3c-1.1,2-0.9,2.8,1.3,5l2.7,2.6l4.4-2.1
		c2.4-1.1,6.3-3.4,8.6-4.9l4.2-2.9l1,2.4c0.5,1.3,0.7,3.1,0.3,4c-0.4,0.8-0.1,2.5,0.6,3.7c0.8,1.3,0.8,2.8,0.2,3.9
		c-0.8,1.2-0.3,3.1,1.7,6.3c2.8,4.5,2.8,4.5,0.3,6.1c-3.2,2.1-1.2,4.2,2.4,2.5c3.5-1.7,7.5-1.5,10,0.6c3.7,3,0.6,6.7-9.1,10.8
		c-10.6,4.5-15.3,5.4-29.1,5.6c-10.2,0.1-11.6,0.4-21.5,4.7c-5.8,2.5-10.6,5.1-10.6,5.6c0,2.3,1.8,2.1,8.9-1c4.1-1.8,9.5-3.2,12-3.2
		c4.3,0,4.5,0.1,3.1,2.4c-0.8,1.3-2.5,3.2-3.8,4.2c-2,1.5-2.1,2.1-0.9,4.7c1.9,3.8,6.9,5.6,12.8,4.7l4.7-0.7l-3.6,2.3
		c-2,1.2-5.2,2.6-7.3,3c-2,0.4-6.1,1.9-9.2,3.3c-3.1,1.4-6.2,2.2-7,1.7c-1.9-1.1,0.1-2.7,6.3-5.1c5.5-2.1,4.6-4.4-1.3-3.3
		c-2.3,0.4-9.9,3-16.7,5.8c-10.7,4.3-12.6,5.5-13.2,8.1c-0.8,3.2-3.4,4.7-12.6,7.3c-2.9,0.8-6.8,2.8-8.5,4.4s-5,4-7.3,5.3
		c-2.3,1.3-4.5,3.6-4.9,5.2c-0.6,2.5-0.8,2.6-1.6,0.6c-1.5-3.6-3.8-0.1-3.9,6.1c-0.1,6.3-3.6,10.6-11.3,13.8
		c-7.8,3.4-19,11.3-21.3,15.1c-2,3.4-2.1,4.7-0.8,13.4c1.1,8.1,1.1,10.2-0.4,12.8c-1.1,2-2.4,2.9-3.5,2.6c-2.6-0.9-5.8-10.7-4.9-15
		c0.6-3,0.2-4.1-2.2-6.3c-2-1.7-3.8-2.3-5.4-1.9c-1.3,0.4-5-0.3-8.1-1.6c-4.9-1.9-6.4-2.1-9.9-1c-2.4,0.7-4.7,2.4-5.5,3.9
		c-1.1,2.3-1.9,2.6-5.1,2c-2-0.4-5.2-1.4-7-2.3c-4.4-2.1-6.9-1.9-11.9,0.7c-2.3,1.2-7,3.5-10.5,5.2c-4,1.9-6.7,4-7.4,5.8
		c-0.6,1.6-2.9,7.6-5,13.5l-3.8,10.7l2,6.9c3.6,12.6,8.6,16.4,19,14.4c7.8-1.5,12.5-4.6,14.3-9.4c1.1-3,2.3-4,5.8-4.9
		c5.3-1.4,7.6-1.4,9.6-0.2c1.7,1,1.1,2.6-6.5,17.6c-5.2,10.3-4.8,11.2,4.1,10c8.1-1.1,15.5-0.2,16.4,1.8c0.3,0.8-0.2,6.2-1.2,12.1
		c-1.8,10.4-1.8,10.7,0.8,14.5c1.5,2.1,4.2,4.6,6.1,5.5c3,1.4,3.9,1.4,7.7,0c6-2.3,9.2-2,13.4,1c3.3,2.4,3.8,2.5,6.4,0.9
		c1.6-0.9,3.7-3.2,4.7-5.1c2.3-4.2,6.3-7.2,9.6-7.3c1.4,0,3.8-1.3,5.4-2.8c3.2-3.1,8.8-4.1,6-1.1c-2.3,2.5-3.6,10.6-2.1,13.2
		c1.2,2.1,1.3,2.1,3.6-0.4c1.6-1.8,1.9-2.9,1-3.7c-2.1-1.9-1.5-3.5,2.4-6.1c4-2.7,7.1-2.4,10.6,0.9c2.5,2.5,16.1,5.8,20,4.9
		c5.9-1.4,21.9,7.5,27.9,15.5c2.9,3.8,12,7.6,16,6.7c8.3-1.9,19.6,5.7,22.2,14.8c0.8,2.7,2,5.3,2.6,5.7c1.8,1-0.9,5-6.7,10
		c-3.7,3.2-4.6,4.6-3.5,5.5c1,0.9,2.7,0.1,6.8-3.3c6-5,8-5.5,10.9-2.8c1.8,1.7,1.8,2-0.7,4.4c-1.5,1.4-3.6,2.7-4.6,2.7
		c-1.1,0-0.7,0.5,1.1,1.2c2.4,0.9,3.6,0.6,6-1.2c6.4-4.7,7.9-4.9,13.6-2c3.7,1.9,5.2,3.3,5,4.8c-0.5,4.2,0.6,5.1,3.8,3.2
		c2.5-1.5,4.3-1.6,12.8-0.5c9,1.1,10.2,1.6,14.6,5.5c3.2,2.9,6.8,4.9,11.4,6.1c6.1,1.6,6.8,2.1,7.9,5.9c1.6,5.4-0.3,11.5-5.4,17.2
		c-2.2,2.5-4.8,6.1-5.9,8c-1.1,1.9-3.4,4.8-5.1,6.4c-2.9,2.7-3.1,3.3-2.4,9.7c1.4,12.4-5.2,35.6-11.6,40.6c-2.1,1.6-3.9,2-7.2,1.5
		c-2.7-0.4-4.7-0.1-5.3,0.6c-0.5,0.7-3.1,2.2-5.9,3.3s-6.9,3.5-9.1,5.2c-3.9,3-4,3.4-2.7,7c1.5,4.2,0.5,9.2-2.8,13.4
		c-1.1,1.4-1.9,3.7-1.9,5.2s-1.3,4.2-2.8,6.1c-1.5,1.9-4.5,6.2-6.6,9.6c-5.2,8.3-8.2,9.8-15.7,7.3c-6.5-2.1-9.9-2.4-9.9-0.7
		c0,0.6,1.3,1.7,2.9,2.3c1.6,0.7,4,3.3,5.5,5.9c2.1,3.9,2.4,5.2,1.2,7.5c-1.7,3.4-8.3,6.3-14.4,6.3c-5.4,0-6.7,1.2-4.9,4.4
		c1.2,2,0.4,5.1-1.9,7.6c-0.2,0.2-2.1-0.5-4.2-1.5c-5.1-2.4-6.9-0.9-4.3,3.7c1,1.8,3,3.7,4.4,4.1c2.4,0.7,2.4,0.8,0.5,2.8
		c-1.1,1.1-1.7,2.9-1.3,3.8c0.4,1.1-0.5,3.3-2.4,5.6c-3,3.6-3.1,3.9-1.1,6.6c1.1,1.6,2.9,3.1,3.9,3.5c3.6,1.3,4.2,5.6,1.5,10.6
		c-2.8,5-3.2,10-1.1,12.3C95.6,959.4,89,963.6,86,962L86,962z"/>
	<path class="st0" d="M-3.1,483.7C0.1,477.6,6.1,473,11,473c3.5,0,3.5,0.5,0.3,4.2l-2.5,2.9l2.6,1.9c2.1,1.5,3.1,1.7,5.5,0.7
		c1.6-0.7,3.3-2.2,3.7-3.4c0.6-1.6,1.5-2,3.6-1.5c2,0.5,3.2,0.1,4-1.3c2.5-4-3.8-9.1-8.4-6.9c-3.3,1.6-7.6-1.6-6.7-5
		c0.3-1.3-0.4-3.4-1.6-4.9c-2.5-3-6.3-3.3-14.6-1.2c-3,0.8-6.4,1.3-7.6,1.3c-1.2,0-1.8,0.4-1.4,1c0.4,0.6,0.3,1-0.3,1.1
		c-0.5,0-2.3,1-4,2.1l-3,2.1l3.4,1.2c2.6,0.9,4.2,0.8,7.1-0.6c3.4-1.6,4.1-1.6,7.9,0c2.3,1,5.4,1.5,6.9,1.1c1.6-0.4,3.2-0.2,3.6,0.4
		c0.4,0.6-1.3,1.4-3.9,1.8c-7.1,1.1-10.8,3.8-15.9,11.6c-4.3,6.6-4.5,7.3-2.8,9.1c1.7,1.7,2.1,1.7,4.4,0.3
		C-7.3,490.3-4.8,486.9-3.1,483.7L-3.1,483.7z"/>
	<path class="st0" d="M18.9,490.6c4.3-2,4.7-2.5,3.2-3.9s-2.5-1.3-7.4,0.7c-5.8,2.3-7.6,5.5-3.2,5.5
		C12.8,492.9,16.1,491.8,18.9,490.6z"/>
	<path class="st0" d="M40.3,482.2c2.5-1.6,2.6-1.9,0.8-2.8c-2.6-1.3-10.4,1-10.4,3.1C30.8,484.6,36.8,484.5,40.3,482.2z"/>
	<path class="st0" d="M131.1,959.1c0-0.5,0.7-1.5,1.5-2.2s1-1.3,0.4-1.3c-0.6,0-1.7,0.8-2.5,1.8c-1.1,1.4-1.9,1.6-3.8,0.6
		c-1.3-0.7-1.6-1.2-0.7-1.3c0.9,0,1.2-0.5,0.8-1.1c-0.8-1.2,1.3-1.5,7.3-1.1c5.3,0.3,5.9,1,2.6,3.4
		C133.7,960.1,131.1,960.6,131.1,959.1L131.1,959.1z"/>
	<path class="st0" d="M1141.2,931.4c-3.5-2,3.7-6.4,21.6-13.3c5-1.9,12.6-5.9,16.9-8.9c7.3-5.1,7.9-5.3,9.4-3.4
		c2.2,2.9,0.9,4.9-4.5,7.2c-2.6,1.1-5.8,3.1-7.2,4.6c-1.4,1.4-3.6,2.6-4.9,2.6c-1.3,0-4.5,1.7-7,3.7
		C1157,931,1146.2,934.3,1141.2,931.4L1141.2,931.4z"/>
	<path class="st0" d="M1056.6,917.1c-1.3-0.7-1.3-1.5-0.3-3.2c0.7-1.3,1.3-3.8,1.3-5.7c0-3.1,0.3-3.4,2.7-2.6c1.5,0.5,4.6,0.9,7,1
		c2.3,0.1,4.7,0.2,5.2,0.3c2,0.3-3.4,5.9-8.2,8.5C1058.6,918.4,1058.8,918.3,1056.6,917.1L1056.6,917.1z"/>
	<path class="st0" d="M1196.3,907.4c-0.4-0.4,0.6-1.7,2.2-2.8c2.5-1.8,2.8-2.5,1.7-4.4c-1.6-2.7,0.8-5.5,6.1-7.6
		c4.2-1.6,5.2-4.8,4.1-12.5c-0.8-5.3-0.7-5.6,1.2-4.2c1.5,1.1,1.8,2.5,1.3,5.1c-0.6,2.8-0.1,4.2,2.5,7c2.8,3,3.6,3.3,5.7,2.3
		c2.1-1,2.4-0.9,1.7,0.7c-0.4,1-0.8,2.1-0.8,2.3c0,0.2-1.8,1.3-3.9,2.3c-2.2,1-6.4,3.7-9.4,5.9c-4.9,3.7-9.9,6.6-11.2,6.6
		C1197.3,908.1,1196.8,907.8,1196.3,907.4L1196.3,907.4z"/>
	<path class="st0" d="M1068.4,893.1c-2.5-2.5-3-2.6-5.5-1.1c-3.1,1.9-9,0.8-13.7-2.5c-2.5-1.8-2.7-2.3-1.4-4.5
		c1.1-1.9,1.1-3.2,0.1-5.2c-0.7-1.5-1.3-3.6-1.3-4.8c0-2.7-1.9-2.8-3.5-0.2c-0.6,1.1-1.5,1.6-1.9,1.2c-0.4-0.4,1-2.5,3.1-4.7
		c5.3-5.5,3.2-6.9-3.7-2.7c-3,1.8-5.6,3.8-5.9,4.4c-0.2,0.6-1.7-1.3-3.2-4.2c-1.6-3.2-4.5-6.4-7.1-7.9c-3.8-2.3-5.1-2.5-12.5-1.8
		c-10.8,1-21.3,3.4-28.1,6.6c-3.1,1.4-9.2,2.9-13.8,3.3c-4.6,0.4-11.9,2-16.2,3.5c-6.6,2.3-8.5,2.5-11.8,1.5
		c-4.5-1.4-6.4-4.1-3.4-5.2c1.1-0.4,3-2.9,4.2-5.6c2.1-4.4,2.2-5.7,0.9-11.4c-1-4.7-1-9.1-0.1-16.3c0.7-5.4,1-10.9,0.6-12.2
		s0.2-4.5,1.3-7.1c1.9-4.6,2.4-4.9,15.4-9.9c7.4-2.8,14.9-5.2,16.7-5.2c5,0,11.2-4.3,14.6-10.2c2.1-3.6,3.6-5,4.8-4.6
		c3.5,1.2,4.2,1,4-1.4c-0.2-1.5,0.5-2.7,2-3.1c1.2-0.4,3.5-2.4,5.1-4.5c1.6-2.1,4.9-4.6,7.5-5.5c4.4-1.6,4.9-1.6,7.3,0.4
		c4.4,3.7,7.6,4.8,9.1,3.1c0.7-0.8,1-1.8,0.6-2.2c-1.4-1.3,5-8.5,8-9.2c1.7-0.4,5.1-1.6,7.6-2.8c3.9-1.8,5.3-1.9,9.7-0.8
		c9.5,2.3,9.8,2.7,6.3,7.5c-4.5,6.2-3.3,8.7,7.8,15.8c5.1,3.3,10,5.8,10.7,5.5c0.8-0.2,3.3-2.8,5.5-5.6c3.1-3.9,4.3-6.7,4.8-11.2
		c0.7-6.5,4.1-15.5,5.8-15.5c0.6,0,1.9,2.7,2.9,5.9c1,3.3,3.2,7,4.8,8.4c3.8,3.2,6,12.3,4.3,17.6c-1.1,3.5-0.9,4.1,2.9,7.7
		c2.3,2.1,5.9,7.4,8,11.6c2.1,4.3,6,10.3,8.5,13.4l4.7,5.6l-1.3,8.7c-1,6.3-2.5,10.5-5.4,15.3c-4.6,7.4-11.4,14.4-15,15.4
		c-1.3,0.4-4.3,3.1-6.7,6.1c-2.4,3-4.8,5.5-5.5,5.5c-0.7,0-3.4,2.6-6.1,5.7c-4.6,5.3-5.4,5.7-10.1,5.8c-3.6,0.1-6.4,1-9.4,3l-4.2,3
		L1068.4,893.1L1068.4,893.1z"/>
	<path class="st0" d="M478.7,869.9c-2.6-2.3-3-3.5-2.4-6.8c0.5-3,0-4.8-2.3-7.9c-1.6-2.2-3-4.5-3-5.2c0-0.7-2.1-3.8-4.8-7
		c-4-4.9-4.9-6.9-5.5-13.2c-1.2-11-5-23-10.2-31.6c-2.6-4.3-5-9.8-5.4-12.3c-0.9-5.3,1.4-13.2,6.8-22.8l3.6-6.4l-2-5.5
		c-1.1-3.1-1.7-6.8-1.3-8.3c0.5-1.8,0-4-1.6-6.3c-1.3-1.9-3.2-6.2-4.2-9.6c-1.4-4.5-3.3-7.4-7.3-10.9c-7.7-6.9-8.7-9.6-6.3-17
		c4.8-15.2-0.4-24.1-13.2-22.3c-5,0.7-5.2,0.6-5.9-2.6c-0.5-2.5-2-3.9-5.7-5.6c-4.8-2.2-6.8-2.2-12.7-0.1c-1.3,0.5-6.8,2.2-12.1,3.8
		c-8,2.4-10.4,2.7-13.9,1.8c-3.3-0.9-6.1-0.6-12.8,1c-7,1.7-9.5,1.9-13.3,1c-7.9-2-21.4-13.1-23.3-19.2
		c-1.5-4.7-10.7-15.7-13.9-16.4c-2-0.5-2.2-0.9-1-1.6c1.2-0.7,1-1.1-0.9-1.6c-3.1-0.7-3.4-3-0.4-3c1.8,0,1.9-0.2,0.3-1.1
		c-1.1-0.7-1.3-1.1-0.3-1.1c1,0,0.6-1.4-1.1-3.9c-2.3-3.6-2.4-4.1-0.6-5.9c5.4-5.5,6.6-17.2,2.5-24.6c-2-3.5-0.7-8.4,3.5-13.5
		c1.6-1.9,4.7-6.6,6.8-10.3c3.8-6.6,12.4-15.8,14.7-15.8c2.6,0,10.8-8.1,10.8-10.6c0-5.7,3.7-11.3,9.8-14.8c3.2-1.9,7.1-5.2,8.5-7.2
		c2.9-4.2,3.3-4.4,6.6-2.3c1.3,0.8,4.6,1.9,7.2,2.3c4.1,0.6,6,0.2,12.1-2.8c10.4-5.1,16.9-6.4,28.8-5.7c7.9,0.4,11.4,0.2,15.2-1.2
		c5.6-2.1,10.5-0.8,9.2,2.3c-0.4,0.9-0.2,2.3,0.5,3.1c0.9,1,0.9,2.3,0,4.5c-1.1,2.7-0.9,3.5,1.9,6.1c1.7,1.7,4.9,3.3,6.9,3.7
		c9.7,1.8,12.5,2.9,14.5,6c1.5,2.3,3.4,3.4,6.6,4c2.5,0.4,6.1,1.5,8,2.4c3.3,1.5,3.7,1.5,6.4-0.8c1.8-1.6,2.7-3.2,2.2-4.5
		c-0.4-1.1-0.1-3,0.6-4.2c1.9-3.2,7.2-2.9,15.5,0.9c9,4.1,26.2,7.1,32.3,5.5c2.9-0.7,5.7-0.7,8.3,0c8.4,2.3,12.6,0.5,13.8-5.9
		c0.4-2.1,1-3.9,1.4-3.9c0.8,0,1.2-3.2,1.3-10.2c0-2.3,0.6-4.1,1.3-4.1c0.8,0,0.8-0.8-0.1-2.3c-1.5-2.5-4.5-2.5-11.7,0.2
		c-3.4,1.3-4.4,1.2-7.4-0.4c-4-2.1-8.1-2.5-9.2-0.7c-0.9,1.3-7.1,0.4-10.4-1.5c-2.4-1.4-4.7-5.5-4.7-8.5c0-1.2-1.2-2.9-2.7-3.8
		c-2.3-1.5-2.5-1.9-0.9-2.8c1-0.6,3.1-0.8,4.6-0.5c1.9,0.4,3.7-0.3,5.9-2.3c2.1-1.9,4.7-3,7.5-3.1c2.4-0.1,5.9-1.1,7.7-2.2
		c4-2.4,13.1-1.7,20.1,1.5c9.5,4.3,17.9,4.1,21.3-0.6c1.8-2.5,1.8-3,0.1-5.3c-1-1.4-5.9-4.7-10.9-7.3l-9-4.7l1.7-3
		c0.9-1.6,1.4-3.3,1-3.6c-0.4-0.3-0.2-1.3,0.3-2.1s1.1-2.1,1.2-2.9c0.3-1.7-1.7-1.2-11.3,2.7c-5.6,2.3-6.4,2.9-5.2,4.3
		c0.8,0.9,2.6,1.6,4,1.7c2,0,1.5,0.6-2.1,2.3c-4.3,2.1-4.8,2.1-7.6,0.4c-2.4-1.4-2.7-2.1-1.6-3.4c1.1-1.2,1-1.7-0.8-2.3
		c-1.2-0.4-2.8-1.5-3.5-2.4c-3.5-4.2-14.5,6.9-17.7,17.8c-1.5,5.1-1.5,5.4,1.4,7.3l2.9,2l-5.4,1c-3,0.6-6.9,0.6-8.9,0.1
		c-3.5-0.9-8,0.4-8,2.4c0,0.6-0.8,0.7-1.8,0.4c-1-0.4-2.6-0.1-3.6,0.7c-1.5,1.1-1.3,2,1.1,6.2c2.6,4.5,2.7,5.1,1.1,8.2
		c-2.1,3.8-4,3.5-6.9-1c-2-3.1-2-3.2,0.7-3.6c3.4-0.4,3.6-2.4,0.3-2.9c-7.5-1.1-11.5-4.7-11.5-10.4c0-4.4-4.5-9.3-9.9-10.8
		c-2.8-0.8-5.9-2.4-6.8-3.6c-0.9-1.2-3.7-3-6-3.9c-2.4-0.9-5.1-2.6-6-3.8c-1.3-1.6-2.1-1.8-4-0.9c-1.3,0.6-2.3,1.9-2.3,2.7
		c0,2.9,15.4,15.8,23,19.3c8,3.7,9.2,5,3.7,3.9c-4.9-1-6.3,0-4.6,3.4c1.2,2.4,1,3.1-1.4,5.2l-2.8,2.4l0.6-3.3
		c1-5.2-6.5-12.7-12.8-12.7c-2.3,0-11.1-7.8-13.4-11.9c-2.5-4.4-5.2-5.2-9.1-2.8c-5.9,3.6-10.2,4.8-14.8,4.1c-6.1-0.9-9.9,1-9,4.5
		c0.5,1.8,0.2,2.7-0.9,2.7c-0.9,0-3.2,1.2-5.2,2.8s-3.9,2.8-4.4,2.8c-1.5,0-5.7,7-5.7,9.5c0,2.4-4.7,7-9.3,9.2
		c-1.5,0.7-4.8,1.2-7.5,1.2c-3.7,0-5.2,0.6-6.2,2.3c-1.3,2.3-1.4,2.3-4.5-0.6c-2.9-2.7-4.6-3.3-10.5-4.1c-3.1-0.4-3.6-6.8-1.3-15.9
		c1-3.9,1.5-8.2,1.1-9.7c-1.1-4.2,2.4-6.6,8.4-5.8c13.9,1.9,22,2.1,23.9,0.3c2.6-2.4,3.8-10.2,2.2-14.7c-1-2.9-2.5-4.1-6.7-5.5
		c-6.3-2.2-6.4-4.3-0.3-4.4c2.3,0,5.7-0.9,7.5-2c1.8-1.1,3.8-1.7,4.4-1.3c1.7,1,8.2-2.4,10.3-5.4c1-1.4,3.1-2.9,4.5-3.3
		c1.5-0.3,5.4-2.9,8.7-5.8c4.7-4,7.2-5.3,11.2-5.7c5-0.5,10-4.3,7.7-5.7c-1.5-0.9-2.7-6.2-1.9-8.2c0.4-0.9,2.1-2.5,3.8-3.5l3.1-1.9
		l-0.8,4.5c-0.7,3.9-0.5,4.5,1.3,4.2c1.2-0.2,3.4-0.9,4.9-1.7c2.3-1.2,2.9-1.1,3.5,0.3c1,2.5-1.8,5.4-3.8,3.9
		c-1.1-0.8-1.8-0.8-2.4,0.1c-0.6,0.9-1.1,0.9-1.9-0.2c-0.5-0.8-1.3-1.2-1.6-0.9c-0.3,0.3,0.6,2,2.1,3.7c2.6,2.9,3.1,3.1,6.7,1.9
		c3.1-1,4.6-0.9,7.3,0.3c3,1.4,4,1.4,9.8-0.7c5.1-1.8,7.1-2,9.3-1.1c2.1,0.9,3.6,0.8,5.5-0.1c5.4-2.6,6.9-4.5,6.3-8.1
		c-1-5.3,0.8-7,5.7-5.3c3.3,1.1,4.2,1.1,5.7-0.3c1.6-1.4,1.4-2-1.1-4.5c-2.5-2.4-2.7-3-1.1-3.9c1-0.6,4.7-0.8,8.2-0.5
		c6.4,0.6,14.4-1.7,13-3.7c-1.2-1.8-8.6-2.3-14.8-1c-5.5,1.1-7,1-11.2-0.7c-6.6-2.7-7.4-5.9-2.8-11.6c5.8-7.4,6.9-9.8,5.2-11.6
		c-2.5-2.7-4.9-1.8-10.5,3.8c-3,3-7,6-9,6.8c-2,0.7-4.4,2.8-5.4,4.6c-1.6,2.9-1.6,3.5,0,5.8c1,1.4,3,2.9,4.3,3.3
		c3.7,1.1,3,3.1-2.3,6.4c-1.6,1-3.8,3.9-4.8,6.4c-1.3,3.1-3.2,5.3-6.3,6.9c-4.3,2.3-4.5,2.3-6.9,0.3c-1.3-1.1-2.8-3.4-3.2-5
		c-0.4-1.7-2.2-4.7-4-6.6l-3.3-3.6l-4.2,2.3c-2.3,1.3-5.3,2.3-6.6,2.3c-3.8,0-8.3-3.8-8.6-7.3c-0.1-1.7-0.6-4-1.1-5
		c-1.1-2.5,4.3-7.1,10-8.5c5.6-1.4,17.1-8.8,19.1-12.2c0.9-1.5,3.8-4.6,6.5-6.8c2.7-2.2,5-4.6,5-5.2s2.6-1.9,5.7-3s8.5-2.9,11.8-4.1
		c4.1-1.5,9.2-2.3,15.7-2.5c11.4-0.3,18.9,1.1,25,4.6c3.1,1.8,5.5,2.4,7.9,1.9c4.2-0.8,26.4,5.5,27.4,7.7c0.9,2.2-5.5,4.3-10.9,3.6
		c-2.5-0.3-7.7-1.2-11.6-2c-5.2-1-7.3-1-8.3-0.1c-1,0.9-0.5,1.6,1.9,2.6c1.8,0.8,4.1,2.8,5,4.5c2.4,4.3,10.3,7.8,14.3,6.4
		c3.9-1.3,3.9-1.8-0.2-3.8c-3.8-1.9-2-2.3,2.7-0.6c3.8,1.3,8.1-0.3,7.1-2.7c-0.5-1.1,0.9-1.9,4.6-2.8c8-1.9,8.6-2.1,7.9-3.6
		c-2.5-5.6-2.5-5.4,1.1-5c1.9,0.2,3.4,1,3.2,1.7c-0.2,0.7,0.9,1.9,2.3,2.6c2.1,1,3.8,0.7,9.5-2.1c8.5-4.1,15.1-5.4,17.5-3.5
		c1.4,1,3.6,1,10.2,0c4.7-0.7,9-1,9.6-0.6c0.6,0.4,1.5,0.1,2-0.5c1-1.4-1.7-4.6-3.1-3.8c-1.7,1-7.5-0.8-6.2-1.9
		c1.3-1.1,34.9,6,36.9,7.9c1.4,1.2,5.7-0.4,5.7-2.2c0-0.6-2.4-2.1-5.3-3.4c-9.1-4-9.7-10.5-1.1-12.5c5-1.1,7.1,0.2,14,8.5
		c8.9,10.9,8.7,10.3,5.8,14.1c-2.2,2.8-2.3,3.4-0.8,3.9c2.8,1,8.9-2.5,9.8-5.6c1-3.6-0.9-6.7-5.3-8.9c-3.5-1.7-6-4.7-6-7.2
		c0-0.9,1.3-1.1,3.9-0.6c3.9,0.7,7.2-0.6,16-6.4c2-1.3,5.5-2.2,8.9-2.3c7-0.1,9.3-1.2,7.3-3.4c-0.8-0.9-1.2-1.8-0.9-2.1
		c1.5-1.4,21.5-4,26-3.3c4.4,0.6,5.8,0.3,9.4-2.3c2.3-1.6,4.2-3.4,4.2-3.9c0-1.3-10.6-1.2-11.5,0.1c-1.3,1.9-2.9,1.2-2.4-1
		c0.4-1.8-0.6-2.2-9.4-2.8c-24.1-1.7-26-2.1-23.1-4.7c2.5-2.3,8.8-2.3,14,0.1c2.1,1,5.7,1.8,7.9,1.8s4.3,0.5,4.7,1.1
		c0.4,0.6,2.5,1.1,4.7,1.1c6,0,17.7,2.4,17,3.5c-0.4,0.5,0.8,1,2.5,1s4.9,0.9,7,1.9c2.9,1.4,6.9,1.9,15.4,1.9
		c9.1,0,12.2,0.5,14.8,2.1c1.8,1.1,3.3,2.4,3.3,2.7c0,0.4-2.8,2.1-6.2,3.8c-8.2,4.1-6.5,5.9,3.5,3.6c6.4-1.5,7.9-1.5,13.2-0.1
		c4.4,1.2,7.1,1.3,10.1,0.6c3-0.8,6-0.6,11.2,0.6c5.4,1.3,8.2,1.4,11.6,0.5c7.8-2,17.4-1.4,22.9,1.3c2.8,1.4,7.9,3.9,11.3,5.6
		c6.1,3.1,6.4,3.1,10.7,1.3c3.6-1.5,5.5-1.6,10.8-0.7c5.2,0.9,7.1,0.8,10.1-0.6c2.9-1.4,3.3-2,2.2-3.2c-2.1-2.3,5.4-3.2,14.7-1.7
		c4.2,0.7,9.6,1.4,11.9,1.5c2.3,0.2,6.9,1.4,10.1,2.7c4.9,2,8.6,2.5,23.1,2.8c13.7,0.3,18,0.8,21.3,2.4c3.4,1.6,7.2,2,19.9,2.2
		c11.7,0.1,16.9,0.6,20.4,2c5.6,2.2,7.8,1.4,4.8-1.7c-2.2-2.2-2.2-2.2,6.3-1.5c14.2,1.3,31.1,4.1,36.9,6.1c3,1.1,8.7,2.3,12.7,2.7
		c4,0.4,9.8,2,12.9,3.4c4.7,2.2,6.3,2.4,9.3,1.5c4.2-1.3,6.9-0.4,13.2,4.7l3.9,3.1l-3,0.7c-3,0.7-10.9-1.1-13.6-3.1
		c-0.8-0.6-1.9-0.8-2.5-0.5c-0.6,0.3-3.4-0.2-6.3-1.1c-6.8-2.1-9.8-1.3-6.7,1.8c2.1,2.1,2.1,2.2-2,1.9c-7.5-0.5-5.4,1.5,5.6,5.5
		c6,2.1,11.1,4.1,11.5,4.4c1.1,1-2.6,2.2-5.3,1.8c-3-0.5-10.4,2.4-10.4,4.1c0,0.6-1.2,2-2.6,3.2c-2.4,2-2.9,2.1-6,0.6
		c-3-1.4-3.9-1.4-6.8-0.1c-1.8,0.8-5,1.9-6.9,2.3c-2,0.4-4.3,1.3-5.1,1.9c-2.4,1.8,1.9,7.2,7.9,9.9c3.3,1.5,5.7,3.4,6.4,5.2
		c0.6,1.6,1.9,4.2,2.9,5.8c1.6,2.6,1.6,3-0.1,3.6c-1.3,0.4-1.6,1.3-1.1,2.6c0.5,1.1,1,3.2,1.2,4.7c0.2,1.5,0.7,3.6,1.2,4.6
		c0.6,1.3,0.1,2.1-1.8,2.6c-2.1,0.6-3.6-0.1-7-3.6c-2.4-2.4-6.4-5.8-8.9-7.4c-2.5-1.7-7-6-10-9.6c-5.3-6.4-5.4-6.7-3.6-9.7
		c1-1.7,1.8-4.3,1.8-5.7c0-1.4,0.8-3.8,1.7-5.3c1.7-2.9,1.1-5.2-2.7-9.1c-2.5-2.6-6.8-0.6-5.7,2.5c1,2.9-2.1,3.9-5.7,1.7
		c-1.6-0.9-5.1-2-7.9-2.4c-4.8-0.7-5.2-0.6-6.4,2.4c-0.7,1.7-1,4.5-0.7,6.1c0.6,2.5,0.2,3.1-2.7,3.6c-1.9,0.4-5.3-0.1-8-1.1
		c-3-1.1-5.8-1.5-7.8-1c-1.7,0.5-7.6,0.9-13,0.9c-8.6,0.1-10.3,0.4-12.9,2.7c-1.7,1.4-3.6,4.9-4.4,7.7c-0.8,2.8-2.2,6.3-3.2,7.6
		c-1.7,2.3-1.5,2.6,3.2,4.8c5.1,2.4,10.8,3,15,1.7c3.3-1,13.3,6.1,16.4,11.7c1.3,2.3,3.4,4.7,4.7,5.3c4.9,2.4,5.9,18.3,1.8,28.6
		c-2.9,7.2-6.1,9.5-10.8,7.9c-1.8-0.6-3.4-1.1-3.7-1.1c-0.2,0-1.6,2-3,4.5c-1.9,3.3-2.2,4.9-1.3,5.9c1.8,1.9,0.5,4.5-3.1,5.9
		c-1.6,0.7-3,1.7-3,2.3s3.8,3.4,8.4,6.4c5.9,3.7,9,6.5,10.5,9.5c1.1,2.3,1.8,4.4,1.6,4.6c-0.3,0.2-2.7,1.4-5.5,2.7l-5,2.3l-3-6.3
		c-3.4-7.1-6.3-9.9-11.3-11.1c-2.6-0.6-3.5-1.5-3.5-3.5c0-1.8-1.3-3.3-3.9-4.7c-3.9-2.1-4-2.1-8.1,0.3c-4.1,2.3-4.2,2.3-5.5,0.2
		c-0.7-1.2-1.3-2.9-1.3-3.9s-1-2.2-2.3-2.8c-1.8-0.9-3-0.4-6.4,3c-2.3,2.3-5.2,4.7-6.5,5.3c-2,1-2.1,1.5-0.7,3c0.9,1,4,3,6.8,4.4
		c4.6,2.3,5.4,2.5,7,1.1c1.5-1.3,2.7-1.4,7.1-0.3l5.3,1.3l-3,1.8c-5.5,3.3-7.2,5.1-8,8.1c-0.6,2.5-0.3,3.2,2.2,4.2
		c1.6,0.7,4.1,3.4,5.5,6c1.4,2.6,4.2,5.7,6.2,6.7c4.4,2.4,5.7,4.9,3.2,6.2c-2.4,1.2-1.2,3,1.9,3c3.8,0,3.8,2.1,0.1,13.9
		c-4.4,14.3-8.4,19.1-18.8,22.6c-4.1,1.4-9.1,2.6-11.1,2.7c-4.6,0.2-8.2,2-11.4,5.7l-2.5,2.9l-1.2-2.8c-1.5-3.6-5-4.6-10-2.6
		c-4.6,1.8-7.6,4.6-8.8,8.2c-1.1,3.3,2.8,9,9.1,13.6c5.2,3.8,11.1,13.3,12.5,20.2c1.2,6-0.9,10-6.6,12.3c-2.6,1.1-5,2.8-5.4,3.9
		c-0.9,2.6-6.3,5.8-7.3,4.3c-0.4-0.6-0.4-2,0-3.1c0.4-1.1,0.4-2.8,0-3.8c-0.6-1.4-1.3-1.5-3.2-0.6c-2,1-2.8,0.7-4.4-1.4
		c-3.9-5.2-15.4-13.6-18.6-13.6c-1.1,0-1.5,1.2-1.4,3.9c0.2,2.1-0.3,6.3-1.1,9.2c-1.2,4.8-1.1,5.7,1.2,8.4c1.4,1.7,2.9,4.4,3.3,5.9
		c0.4,1.6,3.9,5.1,7.9,8c6.7,4.9,7.4,5.8,10.2,14c1.7,4.8,3,9.2,3,9.8c0,1.9-2.5,1.1-7.8-2.3c-5.5-3.6-8.9-9.2-11.8-19.2
		c-1.3-4.3-2.6-6.2-6.6-8.8c-4.8-3.2-5-3.5-4.6-8.9c0.2-3,0.8-7.3,1.2-9.6c0.6-3.1,0.1-5.4-2.3-9.9c-1.7-3.2-3.7-8.2-4.5-11.1
		c-1.7-6.4-4.1-7.4-8.4-3.7c-1.8,1.5-3.5,2.8-3.9,2.8c-1.9,0-4.6-3.7-3.9-5.6c1.2-3.3-5.9-14.9-10.1-16.4c-2.3-0.9-4.3-2.9-5.7-5.7
		c-2.4-4.9-5.1-6.8-7.8-5.4c-1,0.5-4.9,1.5-8.7,2.2c-7,1.3-9.5,3.2-8.6,6.6c0.4,1.2-0.9,2.4-3.8,3.7c-2.4,1-4.9,3.1-5.7,4.6
		c-0.8,1.5-2.4,3.1-3.7,3.4s-3.2,2.1-4.4,3.8s-4.5,4.8-7.5,6.9c-4.1,2.9-5.4,4.5-5.2,6.5c1.2,11.8-0.6,21.6-5.1,27.5
		c-4.3,5.7-4.6,5.9-8.3,4.3c-2-0.8-3.3-2.5-3.8-5c-0.4-2.1-2.9-7.8-5.4-12.8c-15.5-30.3-17.8-36.1-16.4-41.6
		c0.9-3.7-1.2-9.3-3.3-8.7c-0.8,0.3-1.5,1.2-1.5,2c-0.1,5-6.3,5.8-11.1,1.4l-3.2-2.9l2.8-0.9c3.1-1,2.8-3.9-0.3-3.4
		c-1.1,0.2-3.7-0.9-5.7-2.5c-2-1.6-4.1-2.8-4.7-2.8s-1.4-1-1.8-2.2c-1.1-3.2-7.5-6-10.7-4.7c-2.9,1.2-29.1,0.9-33.5-0.3
		c-1.6-0.5-4.5-2.5-6.5-4.6c-3.6-3.8-3.7-3.8-9.1-2.5c-5.1,1.3-5.9,1.1-12.8-2c-6-2.7-7.8-4.2-9.6-8c-2.3-4.8-7.6-8.2-10.7-7.1
		c-1,0.4-2.2,2.1-2.6,3.9c-0.6,2.6,0,4.2,3,7.9c2.1,2.6,4.3,6.6,5,8.9c1.5,5,4.4,6.5,6.8,3.5c1.5-1.8,1.8-1.9,2.8-0.5
		c0.6,0.9,1,2.1,0.8,2.8c-0.7,1.9,6.3,5.1,9.6,4.3c1.6-0.4,5.2-2.9,7.8-5.7c4.2-4.3,5.6-4.6,4.9-1c-0.5,2.4,1.6,5.3,5.1,7
		c5.4,2.5,12.9,8.2,12.9,9.7c0,0.7-1.4,2.5-3.1,4c-1.7,1.5-4.2,4.6-5.5,6.9c-3.2,5.7-12.4,14-15.6,14c-3.6,0-9,2.8-11.1,5.8
		c-1,1.4-3.7,3.4-5.9,4.4c-11.5,5.2-25.3,10.6-29.2,11.2c-4.2,0.7-4.5,0.5-6.7-3.4c-1.3-2.3-2.7-6.9-3.2-10.3
		c-0.6-4.3-1.9-7.1-4.4-9.7c-1.9-2-3.5-4.1-3.5-4.7s-2.2-3.1-4.9-5.6c-3.3-3.1-5.5-6.5-6.8-10.8c-1.1-3.4-3.3-7.7-4.9-9.5
		c-11.1-12.6-14.4-17-16-21.7c-2.2-6.1-4-7.1-4.9-2.6l-0.6,3.2l-4.1-4.7c-6.3-7.3-7.1-4-1.2,4.9c2.8,4.2,7.3,11.6,9.9,16.5
		c2.7,4.9,6.1,10.4,7.7,12.3c1.6,1.9,2.8,5,2.8,7c0,4.2,1.4,6.8,6.7,12.8c2.1,2.4,4.3,6,4.7,7.9c0.6,2.4,2.9,5,7.9,8.7
		c7.6,5.6,12.6,11.4,13.8,16.3c0.5,1.8,2.2,3.7,4.4,4.7c3.4,1.6,4.6,1.5,15.2-0.6c6.4-1.3,13.1-3,15-3.9l3.4-1.6l0.8,4.4
		c0.7,4-0.1,5.9-8.7,21c-9.3,16.2-9.7,16.7-18.9,23.4c-5.2,3.7-10.6,8.3-12,10.2c-1.4,1.9-6.1,6.9-10.3,11.1
		c-12.3,12.4-13.9,23.4-5.8,38.1c2.1,3.7,2.9,6.5,2.4,8.3c-0.4,1.5-0.1,5.2,0.6,8.3c1.1,4.9,1,6.2-1,9.7c-2.9,5.1-5.1,7-13.1,10.6
		c-3.5,1.6-6.3,3.4-6.3,4c0,0.6-2.4,3.6-5.4,6.6c-3,3.1-5.4,6.1-5.4,6.7s1.1,3.1,2.5,5.6c4.1,7.4,1.3,12.7-8.5,16.4
		c-4.2,1.6-5.5,4.8-4.5,10.6c0.5,3,0.2,4-1.7,5c-1.3,0.6-3.6,3-5.2,5.2c-5,7.1-19.2,19.7-25.7,22.7c-5.4,2.5-6.8,2.7-10.8,1.7
		c-3.5-0.9-6.3-0.7-12.2,0.6C481.3,873.2,482.4,873.3,478.7,869.9L478.7,869.9z"/>
	<path class="st0" d="M638,517.7c3.1-1.5,3.6-2.3,3.6-6.5c0-3-0.7-5.3-1.9-6.2c-1-0.8-2.7-2.9-3.8-4.7c-1.7-3-1.7-3.2,0.1-2.6
		c2.3,0.8,5.6-0.2,5.6-1.7c0-0.6-1.1-2.5-2.5-4.3c-2.1-2.7-2.9-3-4.8-2.1c-1.6,0.8-2.3,0.8-2.3,0c0-0.6-2.2-2.1-4.8-3.4
		c-5.8-2.7-7.9-5.7-6.1-8.8c1.4-2.4,6.3-4,8.4-2.8c2.8,1.6,3.7-0.8,1.3-3.8c-5.7-7.3-13.6-6.8-23.4,1.4c-6.3,5.3-6.9,6.7-3.3,8.5
		c1.3,0.7,2.4,1.9,2.4,2.8c0,0.9,2.2,3.8,4.8,6.4c6.1,6,7.2,8.7,6.4,15.8l-0.6,5.7l8.3,3.9c4.6,2.1,8.5,3.9,8.7,3.9
		S636,518.6,638,517.7L638,517.7z"/>
	<path class="st0" d="M604.7,826.2c-3.4-1.8-3.9-2.7-4.8-9.2c-0.7-5.2-0.4-6.3,3-11.4c3.5-5.1,3.7-6.1,3-11.7
		c-1.1-8.1,0.8-12.3,5.9-13.3c4.8-1,15.3-9.4,17.8-14.4l1.9-3.8l1.3,2.7c3.4,6.7,3,9.7-2.8,24.4c-3.1,7.9-6.5,17.3-7.4,21
		c-3.1,11.7-4.9,14.5-10,15.9C607.1,827.7,607.7,827.7,604.7,826.2L604.7,826.2z"/>
	<path class="st0" d="M1200.5,807c-3.9-3.9-6.2-7.2-6.2-8.8c0-3.7,0.7-3.4,4.1,2.1c1.7,2.6,4.7,6.2,6.7,7.9c2,1.8,3.7,3.6,3.7,4.1
		C1208.8,814.4,1206.2,812.7,1200.5,807L1200.5,807z"/>
	<ellipse class="st0" cx="662.1" cy="805.4" rx="1.2" ry="1.1"/>
	<path class="st0" d="M1297.8,803.4c-0.4-0.6-0.2-1.5,0.5-1.9c1.8-1,2.4-0.2,1.2,1.6C1299,804,1298.3,804.1,1297.8,803.4
		L1297.8,803.4z"/>
	<path class="st0" d="M669.4,801.6c0-0.3,0.5-0.8,1.2-1.2c0.7-0.4,1.2-0.2,1.2,0.5c0,0.6-0.5,1.2-1.2,1.2S669.4,801.9,669.4,801.6z"
		/>
	<path class="st0" d="M1266.4,790.4c-1.2-2.8,0.3-3.8,3.7-2.4c2.9,1.2,2.9,1.4,0.9,2.7C1268.2,792.6,1267.3,792.5,1266.4,790.4z"/>
	<path class="st0" d="M1274,785.5c-2.4-1.3-0.7-2.4,3-2c2.9,0.3,3,0.5,0.9,1.6C1276.6,785.9,1275,786,1274,785.5L1274,785.5z"/>
	<path class="st0" d="M1217.6,781.4c-2.5-4.9-1.6-6.8,1-2.1c2.7,4.9,2.7,5.1,1.5,5C1219.5,784.4,1218.4,783.1,1217.6,781.4z"/>
	<path class="st0" d="M1222.2,780.6c-0.1-1.2,0.2-1.8,0.6-1.4c0.4,0.4,0.4,1.3,0.1,2.1C1222.5,782.2,1222.3,781.9,1222.2,780.6
		L1222.2,780.6z"/>
	<path class="st0" d="M1320.7,770c-1.1-1.6-0.1-2.5,2.5-2c1.9,0.3,1.9,0.5,0.2,1.8C1322,770.9,1321.3,770.9,1320.7,770L1320.7,770z"
		/>
	<path class="st0" d="M605.9,764.5c-0.4-0.6-0.2-1.1,0.5-1.1s1.3,0.5,1.3,1.1s-0.2,1.1-0.5,1.1C606.9,765.6,606.3,765.1,605.9,764.5
		z"/>
	<path class="st0" d="M1136.8,754.2c-7.7-2.2-11.1-4.3-14.1-8.3c-3.4-4.7-9.7-8.2-13-7.3c-1.3,0.4-3.5,2.4-4.9,4.6
		c-2.3,3.6-2.8,3.8-7,3.1c-2.5-0.4-6-2-7.8-3.5c-2.2-1.9-4-2.5-5.7-2c-1.4,0.4-3.4,0.3-4.4-0.3c-1.7-0.8-1.5-1.2,1.2-2.8
		c3.1-1.8,3.1-1.9,1-5.8c-1.7-3.2-3.9-4.8-11.4-8.3c-5.1-2.4-11-4.3-12.9-4.3c-4.5,0-6.4-3.8-3-6c2-1.3,1.7-1.7-3.5-4
		c-5.6-2.5-5.7-2.6-3-3.9c1.5-0.8,3.9-1.4,5.4-1.4c2.8,0,6.4,3.7,6.4,6.7c0,1,1.2,3.2,2.6,4.8c2.6,3,2.6,3,4.5,0.8
		c1.1-1.2,4.4-3.5,7.5-5.1l5.6-2.9l7.7,3.2c4.3,1.8,10.3,4,13.4,5.1c3.1,1,9.4,4.1,13.9,6.8c8.6,5.2,12.4,9.5,10.2,11.9
		c-1.8,1.9,5.1,10.7,12.2,15.6C1145.6,756.1,1145.4,756.6,1136.8,754.2L1136.8,754.2z"/>
	<path class="st0" d="M1189.5,754.1c-1-1-1-1.7-0.2-1.7c1.5,0,3.2,2.1,2.3,2.9C1191.3,755.5,1190.3,755,1189.5,754.1L1189.5,754.1z"
		/>
	<path class="st0" d="M986.3,749.6c-1.8-0.9-2.3-1.5-1.2-1.5c2.2,0,5.6,1.8,4.8,2.6C989.5,750.9,987.9,750.4,986.3,749.6z"/>
	<path class="st0" d="M1006.7,748.1c3.4-4.4,8.8-6.3,13.8-4.8c3.6,1.1,3.7,1.1,0.8,1.3c-1.7,0.1-5.7,1.6-8.8,3.4
		C1005.3,752.1,1003.5,752.2,1006.7,748.1L1006.7,748.1z"/>
	<path class="st0" d="M1182.2,749.6c-1.6-1.8-1.2-2,1.7-1c1.1,0.4,1.9,1.1,1.9,1.7C1185.8,751.8,1183.9,751.5,1182.2,749.6z"/>
	<path class="st0" d="M1187.9,748.7c-0.5-1.1-0.8-2.8-0.8-3.8c0.1-1.2,0.5-0.9,1.2,0.8c0.6,1.5,1,3.2,0.8,3.8
		C1188.9,750.1,1188.3,749.7,1187.9,748.7L1187.9,748.7z"/>
	<path class="st0" d="M1281.4,749.7c0-0.3,0.5-0.8,1.2-1.2c0.7-0.4,1.2-0.2,1.2,0.5c0,0.6-0.5,1.2-1.2,1.2S1281.4,750,1281.4,749.7z
		"/>
	<path class="st0" d="M972,745.1c-0.8-0.3-1.2-1-0.8-1.6c0.9-1.4,8.7-1.3,9.6,0.1c0.4,0.6,0,1.1-0.8,1.1c-0.9,0-2.7,0.2-4,0.5
		C974.6,745.4,972.9,745.4,972,745.1L972,745.1z"/>
	<path class="st0" d="M990,744.2c-2.2-2.4,0.3-3.2,6-1.8c5.7,1.4,5.7,1.6-0.2,2.6C992.7,745.6,991,745.3,990,744.2z"/>
	<path class="st0" d="M1171.6,743.6c-0.8-1.2-1-2.2-0.3-2.2c0.6,0,1.8,1,2.5,2.2c0.7,1.2,0.9,2.2,0.3,2.2
		C1173.5,745.8,1172.4,744.8,1171.6,743.6z"/>
	<path class="st0" d="M1179.2,742.4c-3.2-3.3-1.5-3.8,1.8-0.5c1.6,1.5,2.3,2.8,1.6,2.8C1181.9,744.7,1180.4,743.7,1179.2,742.4
		L1179.2,742.4z"/>
	<path class="st0" d="M952.4,742.2c-4.3-0.5-10.4-1.8-13.5-2.7c-3.1-0.9-6.8-1.4-8.2-1c-2.8,0.8-14.5-2.4-14.5-3.9
		c0-3.5,10.8-3.8,16.6-0.4c2.2,1.3,3.8,1.3,8.4,0.4c5-1,6.1-0.9,9,1.1c1.8,1.2,3.9,2.3,4.6,2.3c2.4,0,9.7,3.7,9,4.6
		c-0.3,0.5-1.3,0.9-2.1,0.8C960.9,743.3,956.7,742.8,952.4,742.2L952.4,742.2z"/>
	<path class="st0" d="M1169.5,736.9c-1.2-1.2-1.6-2.2-1-2.2c0.7,0,2.2,1,3.4,2.2c1.2,1.2,1.6,2.2,1,2.2S1170.7,738.1,1169.5,736.9
		L1169.5,736.9z"/>
	<path class="st0" d="M1161.9,735.5c-0.7-0.8-1.6-2.9-2-4.7c-0.7-2.9-0.6-3.1,0.7-1.1c0.8,1.2,2.2,3,3.2,4c1,1.1,1.2,2.1,0.6,2.5
		C1163.6,736.6,1162.6,736.3,1161.9,735.5z"/>
	<path class="st0" d="M1136.3,732l-3-1.5l4.7-0.8c2.6-0.4,6.5-2.3,8.8-4.1c2.5-2,4.1-2.7,4.1-1.8c0,2.2-1.5,4-6,7
		C1140,734,1140.2,734,1136.3,732L1136.3,732z"/>
	<path class="st0" d="M909.4,727.7c-4.4-2.3-12.5-11.3-15.1-16.8c-1.4-3-4.6-7.9-7.2-11c-2.5-3-5.4-7-6.5-8.8
		c-1-1.8-4.1-5.3-6.9-7.7c-5.8-5.1-9.4-10.5-7-10.5c3.2,0,11.3,4.2,14.8,7.5c9.7,9.2,11.6,10.9,16.2,13.4c4.4,2.5,6.5,5.1,6.7,8.3
		c0,0.6,1.3,2.3,2.8,3.9c1.5,1.5,4.3,4.4,6.3,6.3c1.9,2,3.9,5,4.3,6.8C919.3,725,914.1,730.2,909.4,727.7L909.4,727.7z"/>
	<ellipse class="st0" cx="667" cy="727" rx="1.2" ry="1.1"/>
	<path class="st0" d="M985.6,727c-0.4-0.6-0.4-2.1,0-3.3c0.4-1.2-0.1-3.3-1.1-4.7c-1.7-2.3-1.7-2.8,0.2-5.2c1.1-1.5,2.4-5.4,2.9-8.7
		c0.6-4.1,1.8-6.9,3.7-8.6c2.6-2.4,3.3-2.5,9.2-1.5c5.1,0.9,7.1,0.8,9.9-0.5c4.6-2.2,5-2.1,3.4,1c-2,3.9-5.9,5.2-10,3.2
		c-7.4-3.5-17.2,1.7-12,6.4c1.9,1.7,2.9,1.9,6.5,1c6-1.6,8.4-1.3,4.7,0.6c-4.2,2.1-5,4.4-2.9,8.3c1,1.8,1.8,4.5,1.8,6
		c0,2.5-0.3,2.7-2.4,1.7c-1.3-0.7-3.3-3-4.3-5.2c-1.8-4-1.9-4-4.2-1.9c-2.1,1.9-2.2,2.7-1.1,6.4c1,3.4,0.9,4.5-0.3,5.2
		C987.5,728.4,986.6,728.3,985.6,727L985.6,727z"/>
	<path class="st0" d="M1151.6,721.1c-1.1-1.6-3.8-3.7-5.8-4.6s-3.5-2-3.1-2.3c1.9-1.7,12.4,6.1,11.5,8.5
		C1153.9,723.4,1152.8,722.7,1151.6,721.1L1151.6,721.1z"/>
	<path class="st0" d="M961.7,717.4c-1.8-0.9-4.3-1.3-5.5-1c-3,0.9-15-1.3-16.1-3c-0.9-1.3-3.7-9.4-5.2-15.2c-0.4-1.6,0-3.6,1-4.8
		c1.4-1.7,2.1-1.9,4.3-0.8c2.3,1.1,2.8,0.9,4.1-1.6c0.8-1.6,3.4-3.8,5.9-5c2.6-1.2,5.1-3.4,5.9-5.4c1-2.2,2.9-3.7,5.6-4.6
		c2.3-0.7,5.5-2.9,7.3-5s3.8-3.8,4.6-3.8c0.8,0,3.2,1.6,5.3,3.6l3.9,3.6l-3.1,3.8c-3.5,4.3-3.3,8,0.7,13.2l2.4,3.1l-3,1.8
		c-1.7,1-3,2.4-3,3.2c0,2.5-7.7,17.1-9.7,18.2C965.5,718.7,964,718.5,961.7,717.4L961.7,717.4z"/>
	<path class="st0" d="M1031.9,717.4c-2.5-0.6-2.9-2.6-0.5-2.6c0.9,0,3.5,0.3,5.7,0.7c3.4,0.6,3.7,0.9,1.7,1.6
		C1036.2,718.1,1035,718.1,1031.9,717.4L1031.9,717.4z"/>
	<path class="st0" d="M1224.5,703.3c0-0.3,0.5-0.8,1.2-1.2c0.7-0.4,1.2-0.2,1.2,0.5c0,0.6-0.5,1.2-1.2,1.2
		C1225.1,703.8,1224.5,703.6,1224.5,703.3z"/>
	<path class="st0" d="M1027.7,700.3c-1-0.9-1-1.9-0.2-3.3c0.7-1.1,0.9-2.5,0.5-3.1c-1.1-1.6,1.6-5.5,3.9-5.5c1.8,0,1.8,0.2-0.1,2.1
		c-1.6,1.6-1.8,2.7-0.8,5C1032.9,700,1030.8,703.1,1027.7,700.3L1027.7,700.3z"/>
	<path class="st0" d="M420.2,696.7c0-0.3,0.5-0.8,1.2-1.2c0.7-0.4,1.2-0.2,1.2,0.5c0,0.6-0.5,1.2-1.2,1.2
		C420.8,697.2,420.2,697,420.2,696.7z"/>
	<path class="st0" d="M1259,693.9c-0.4-0.6-0.2-1.1,0.5-1.1c0.7,0,1.3,0.5,1.3,1.1c0,0.6-0.2,1.1-0.5,1.1
		C1260,695,1259.4,694.5,1259,693.9z"/>
	<path class="st0" d="M427.5,683.4c0-0.3,0.5-0.8,1.2-1.2c0.7-0.4,1.2-0.2,1.2,0.5c0,0.6-0.5,1.2-1.2,1.2
		C428,683.9,427.5,683.7,427.5,683.4z"/>
	<path class="st0" d="M1009.2,666.8c-2.3-4.9-2.6-5.1-6.2-4.4c-3.5,0.7-3.7,0.6-2.3-1.6c1.1-1.9,2.1-2.2,4.7-1.7
		c2.5,0.5,4.1,0,6.6-2.1c1.8-1.5,3.3-3.6,3.3-4.7c0-2.8,4.5,6.6,5.6,11.6c0.8,3.8,0.7,4-1.2,2.6c-2.8-2.1-5.5,0.1-3.2,2.6
		c0.9,1,1,1.7,0.3,1.7c-0.7,0-2.1,0.3-3.2,0.7C1012.2,671.8,1011,670.6,1009.2,666.8L1009.2,666.8z"/>
	<path class="st0" d="M788.7,668.8c-1.4-2-2.1-11-1.1-13.4c1-2.5,1.1-2.5,4.2,1.7c3.7,5,4.9,8.2,3.7,9.9
		C794.3,668.6,789.5,669.9,788.7,668.8L788.7,668.8z"/>
	<path class="st0" d="M1058.8,663.1c0-0.6,0.5-1.4,1.2-1.8c0.7-0.4,1.2-0.2,1.2,0.4c0,0.6-0.5,1.4-1.2,1.8
		C1059.4,663.9,1058.8,663.7,1058.8,663.1z"/>
	<path class="st0" d="M1248.7,662.9c0-0.6,0.2-1.1,0.5-1.1c0.3,0,0.9,0.5,1.3,1.1c0.4,0.6,0.2,1.1-0.5,1.1
		C1249.3,664,1248.7,663.5,1248.7,662.9z"/>
	<path class="st0" d="M974.2,656.6c0-0.5,2.4-3.3,5.4-6.3c4.3-4.4,5.4-5.1,5.4-3.2c0,1.2-1.8,4.1-4,6.3
		C977.1,657.1,974.2,658.5,974.2,656.6z"/>
	<path class="st0" d="M1000.4,653.6c-0.4-1-0.4-2.6,0.2-3.5c0.9-1.4,1.2-1.4,2.4-0.1c1.1,1.2,1,2-0.2,3.5
		C1001.3,655.4,1001.1,655.4,1000.4,653.6z"/>
	<path class="st0" d="M74.1,649.3c0.7-0.8,1-1.8,0.6-2.2c-0.4-0.4,0.3-0.7,1.7-0.7c1.9,0,2.4,0.5,1.9,2.2c-0.4,1.3-1.6,2.2-3.1,2.2
		C73.3,650.8,73.1,650.5,74.1,649.3L74.1,649.3z"/>
	<path class="st0" d="M1008.5,649c-0.5-1.1-1-2.5-1.3-2.9c-0.3-0.5,0-0.8,0.7-0.8c1.2,0,2.9,4.5,2,5.4
		C1009.5,650.9,1008.9,650.2,1008.5,649z"/>
	<path class="st0" d="M996.2,646.1c-1.7-1.9,0-4.5,2.5-4c1.6,0.3,1.7,0.8,0.4,2.9C997.9,647.1,997.3,647.3,996.2,646.1z"/>
	<path class="st0" d="M1010.5,642.3c-1.4-1.6-2.3-3.1-2.1-3.3c1-0.9,4.4,1.1,6.2,3.6C1017.4,646.5,1013.9,646.2,1010.5,642.3z"/>
	<path class="st0" d="M990.6,638.1c-1.1-1-2-2.4-2-3.1s1.2-0.2,2.7,1.2c1.5,1.3,2.3,2.7,2,3.1C992.9,639.6,991.7,639,990.6,638.1z"
		/>
	<path class="st0" d="M41.2,637.9c-0.4-0.4-0.8-1.2-0.8-1.9c0-0.7,0.6-0.6,1.4,0.2c0.8,0.7,1.2,1.6,0.8,1.9
		C42.3,638.4,41.7,638.3,41.2,637.9z"/>
	<path class="st0" d="M34.4,636.4c0-0.6,0.2-1.1,0.5-1.1s0.9,0.5,1.3,1.1c0.4,0.6,0.2,1.1-0.5,1.1S34.4,637,34.4,636.4z"/>
	<path class="st0" d="M91.2,634.2c0-0.6,0.2-1.1,0.5-1.1c0.3,0,0.9,0.5,1.3,1.1c0.4,0.6,0.2,1.1-0.5,1.1
		C91.8,635.3,91.2,634.8,91.2,634.2z"/>
	<path class="st0" d="M1002.8,634.1c-1.2-0.6-3.5-0.8-5.1-0.5c-2.3,0.5-4-0.3-8.3-4.4c-6.2-5.8-7.4-8.3-5.6-11.4
		c0.7-1.2,1.3-3.7,1.3-5.5c0-6,4.4-5.8,7.6,0.4c1.8,3.4,1.8,4.2,0.1,7.8c-1.8,3.9-1.8,4.1,1.5,7.2c2.3,2.2,4.1,3,5.9,2.6
		c1.6-0.4,3.2,0.1,4.1,1.1C1006.5,633.8,1005.5,635.5,1002.8,634.1L1002.8,634.1z"/>
	<path class="st0" d="M84,627.1c0-0.3,0.5-0.8,1.2-1.2c0.7-0.4,1.2-0.2,1.2,0.5c0,0.6-0.5,1.2-1.2,1.2C84.5,627.6,84,627.4,84,627.1
		z"/>
	<ellipse class="st0" cx="275.1" cy="623.2" rx="1.2" ry="1.1"/>
	<path class="st0" d="M80.3,618.9c0-0.6,0.5-1.4,1.2-1.8c0.7-0.4,1.2-0.2,1.2,0.4s-0.5,1.4-1.2,1.8
		C80.9,619.7,80.3,619.5,80.3,618.9z"/>
	<path class="st0" d="M70.1,614.4c-0.4-0.6,0.1-0.8,1.1-0.4c2.1,0.7,2.5,1.5,0.7,1.5C71.3,615.4,70.5,615,70.1,614.4z"/>
	<path class="st0" d="M262.4,614.3c-0.4-0.6-0.2-1.1,0.5-1.1c0.7,0,1.3,0.5,1.3,1.1c0,0.6-0.2,1.1-0.5,1.1
		C263.4,615.4,262.8,615,262.4,614.3z"/>
	<path class="st0" d="M74.9,612.1c-0.4-0.6-0.2-1.1,0.5-1.1c0.7,0,1.3,0.5,1.3,1.1c0,0.6-0.2,1.1-0.5,1.1
		C75.9,613.2,75.3,612.7,74.9,612.1z"/>
	<path class="st0" d="M80.3,612.1c0-0.6,0.2-1.1,0.5-1.1c0.3,0,0.9,0.5,1.3,1.1c0.4,0.6,0.2,1.1-0.5,1.1
		C80.9,613.2,80.3,612.7,80.3,612.1z"/>
	<path class="st0" d="M-2.8,609.2c-0.8-0.3-1.5-1-1.5-1.6c0-1.6,5.3-1.2,7.9,0.6c2.2,1.5,2.2,1.6-1.3,1.6
		C0.3,609.8-2,609.5-2.8,609.2z"/>
	<path class="st0" d="M27.8,608.6c-1.1-0.6-3.5-0.7-5.3-0.3c-1.8,0.4-4.7,0.2-6.3-0.4c-2.6-1-2.4-1.1,2-1c6.4,0.1,8.1-0.8,6.5-3.6
		c-1.2-2-0.8-2.1,5-2.1c5.6,0,13.6,2.3,15,4.4C45.5,606.8,30,609.7,27.8,608.6L27.8,608.6z"/>
	<path class="st0" d="M51,609.3c-1.4-1.3,0.3-2.7,3.5-2.7c1.9,0,2.9,0.5,2.6,1.4C56.5,609.5,52.3,610.4,51,609.3z"/>
	<path class="st0" d="M926,607.5c-3.2-2.9,0-6.4,5.8-6.4c2.6,0,2.6,0,0.4,3.5C929.6,608.7,928.1,609.4,926,607.5z"/>
	<path class="st0" d="M61,607.3c0-0.2,0.8-0.7,1.8-1.1c1-0.3,1.8-0.2,1.8,0.4s-0.8,1.1-1.8,1.1C61.8,607.7,61,607.5,61,607.3z"/>
	<path class="st0" d="M8.7,599.4c-0.4-0.3-2.9-0.6-5.7-0.7c-3.8,0-4.7-0.4-3.8-1.4c0.9-1-0.4-2.3-4.8-4.9c-8.7-5.2-13.6-6.2-19.4-4
		c-5.5,2-5.9,2.1-5.9,0.8c0-2.3,9.6-4.9,16.6-4.4c6.6,0.5,10.3,1.7,23.4,8.1c10.7,5.2,10.7,5.2,7.3,6.1
		C12.3,600,9.6,600.1,8.7,599.4z"/>
	<path class="st0" d="M17.5,590c2.3-1.4,3.6-1.4,3.6,0c0,0.6-1.2,1.1-2.7,1.1C16.2,591.1,16,590.9,17.5,590z"/>
	<path class="st0" d="M980.7,588.1c-0.7-0.4-2-1.9-2.8-3.3c-1.2-2.1-1.1-3.1,0.7-6c2.8-4.4,4.7-5,5.6-1.6
		C985.2,580.6,982.5,589.2,980.7,588.1L980.7,588.1z"/>
	<path class="st0" d="M25.4,586.6c0.8-1.2,5.4-1.3,5.4-0.2c0,0.5-1.4,0.9-3,1C26.1,587.5,25,587.2,25.4,586.6L25.4,586.6z"/>
	<path class="st0" d="M1.5,576c-1.9-2-1.7-4.7,0.5-4.7c0.7,0,1,1,0.6,2.2c-0.3,1.2,0,2.4,0.8,2.6c0.8,0.2,1.1,0.8,0.7,1.2
		C3.7,577.6,2.5,577,1.5,576z"/>
	<path class="st0" d="M8.5,567.3c-0.4-1-0.5-2.1-0.2-2.4c0.3-0.3,1,0.3,1.4,1.3c0.4,1,0.5,2.1,0.2,2.4
		C9.6,568.9,8.9,568.3,8.5,567.3z"/>
	<path class="st0" d="M0.9,566.3c0-0.9,1-1.7,2.3-1.7c2,0,2.1,0.2,0.5,1.7c-1,0.9-2,1.7-2.3,1.7C1.1,568,0.9,567.2,0.9,566.3z"/>
	<path class="st0" d="M1015.3,542.1c0-0.9-1.3-3-2.9-4.8c-3.8-4.2-2.5-6.9,2.1-4.2c3.3,2,5,5.9,3.8,8.8
		C1017.3,544.1,1015.3,544.2,1015.3,542.1z"/>
	<path class="st0" d="M76.7,535.5c0-0.3,0.5-0.8,1.2-1.2c0.7-0.4,1.2-0.2,1.2,0.5c0,0.6-0.5,1.2-1.2,1.2
		C77.3,535.9,76.7,535.7,76.7,535.5z"/>
	<path class="st0" d="M1022,534.1c-0.8-1.9,1.1-3.6,3.8-3.7c1.9,0,2,2.4,0.1,4.2C1024,536.4,1022.9,536.3,1022,534.1L1022,534.1z"/>
	<path class="st0" d="M1033.1,530.1c-2.3-3.3-5.7-3.7-13.3-1.8c-3.1,0.8-5.2,0.8-6.7,0c-1.2-0.6-1.5-1.1-0.7-1.2
		c0.8,0,3.1-1.3,5.1-2.8c2.6-2,4.5-2.6,6.5-2.1c2.2,0.5,4.5-0.5,9.4-3.8c9.6-6.6,10.4-8.6,6.5-15.6c-3.7-6.7-2.7-8.9,2.8-5.9
		c4,2.2,7.8,8.4,6.7,11c-0.4,0.9,0.2,3.9,1.3,6.6c1.6,3.8,1.7,5.4,0.7,7.2c-1.6,2.7-5.9,4.4-10.8,4.4c-2.8,0-3.6,0.6-4.5,3.5
		l-1.1,3.5L1033.1,530.1L1033.1,530.1z"/>
	<path class="st0" d="M543.1,526.3c-1.4-1.3-0.7-2.5,1.6-2.5c1.3,0,2.7-0.5,3.1-1.1c1.1-1.7,3-1.3,2.3,0.4
		C549.4,524.9,544.1,527.3,543.1,526.3L543.1,526.3z"/>
	<path class="st0" d="M501.9,524.4l-3.6-1.5l4.8-0.1c6-0.1,10.5,0.9,9.6,2.2C511.7,526.5,506,526.1,501.9,524.4L501.9,524.4z"/>
	<path class="st0" d="M453,513.4c-4.8-2.3-5.1-2.5-2.5-3.1c3-0.7,9.7,0.2,9.6,1.3c0,0.4-0.5,1.5-0.9,2.5
		C458.4,515.7,457.8,515.6,453,513.4z"/>
	<path class="st0" d="M428.8,501.4c-1-2.7-1-3.8,0.4-5c2.5-2.2,4.4-0.7,4.4,3.6C433.5,505,430.5,506,428.8,501.4L428.8,501.4z"/>
	<path class="st0" d="M400.4,502.3c0.9-2,4.5-2.4,3.8-0.4c-0.3,0.8-1.4,1.5-2.5,1.7C400.3,504,399.9,503.5,400.4,502.3L400.4,502.3z
		"/>
	<path class="st0" d="M1032.4,489.7c-2.2-2.8-2.3-3.4-0.6-5.5c1.6-2.1,1.6-2.7-0.1-5.6c-2.7-4.8-2.3-5.1,2.4-1.8
		c2.3,1.6,6.9,3.7,10.2,4.6c6.8,1.8,8.4,3.3,4.9,4.3c-1.3,0.4-2.4,1.4-2.4,2.3c0,1.2-0.8,1.4-3.3,0.8c-6.4-1.5-8.2-1.1-7.8,1.6
		C1036.1,493.7,1035.3,493.5,1032.4,489.7L1032.4,489.7z"/>
	<path class="st0" d="M430.7,491c-1.4-1.3-0.9-3.4,1-4.1c1.3-0.5,1.8,0.1,1.8,2.1C433.5,491.7,432.3,492.5,430.7,491z"/>
	<path class="st0" d="M1024.7,467.7c-1-1.1-3.5-4.9-5.5-8.6c-2-3.6-7.3-10.3-11.7-14.9c-5-5.1-7.5-8.4-6.6-8.7
		c0.8-0.3,2.7,0.9,4,2.6c3.3,4,7.4,7.6,13.9,11.9c5.4,3.6,8,6.9,4.6,5.7c-4-1.4-3,1.9,2.2,7.2c3,3.1,5.5,5.9,5.5,6.1
		C1031,470.5,1026.3,469.5,1024.7,467.7L1024.7,467.7z"/>
	<path class="st0" d="M139.6,465.8c0-0.9,0.5-1.7,1.2-1.7s0.9,0.7,0.5,1.7s-0.9,1.7-1.2,1.7C139.8,467.5,139.6,466.7,139.6,465.8z"
		/>
	<path class="st0" d="M133.3,462.2l-4.5-0.4l8.5-7.7c4.7-4.2,9.1-7.7,9.8-7.7c0.8,0,0.6,0.8-0.6,1.9c-2.5,2.5-0.8,5.4,3.8,6.3
		c2,0.4,4,1.8,4.8,3.4c1.2,2.5,1,2.7-3.2,3.8C147.6,463,142.3,463.1,133.3,462.2L133.3,462.2z"/>
	<path class="st0" d="M-161.4,454.3c-4.2-3.6-4.7-5.1-1.9-6.1c2.5-0.9,7.1,2,8.8,5.5c1.8,3.7,1.8,3.8-0.9,3.8
		C-156.6,457.5-159.4,456.1-161.4,454.3z"/>
	<path class="st0" d="M371.2,448.7c1.3-0.6,3.9-1.6,5.8-2.2c4.1-1.4,3.4-2.8-1.8-3.8c-3.6-0.7-3.7-0.8-1.7-2.2
		c1.2-0.8,1.9-2,1.4-2.6c-0.4-0.7,0.8-1.7,2.8-2.3c2-0.6,3.6-1.6,3.6-2.2c0-2.6-2.5-6.8-3.9-6.7c-3.2,0.4-4.7-0.1-4.2-1.5
		c0.3-0.8,0.1-2.3-0.5-3.3c-1.6-2.8,2-8.5,5.3-8.5c0.5,0,0.8,0.6,0.6,1.3c-0.2,0.7,1,1.5,2.5,1.7l2.8,0.4l-2.7,2.6l-2.7,2.6l3.1,1.1
		c3.3,1.1,6.4,4.9,9.7,11.3c1.5,3.1,2.6,3.9,4.4,3.5c3.7-0.9,4.1,1.4,0.7,3.5c-2.3,1.4-2.8,2.2-1.8,3.1c1,0.9-1,1.6-8,2.5
		c-5.2,0.7-11.3,1.6-13.6,2C369.8,449.6,369.4,449.5,371.2,448.7L371.2,448.7z"/>
	<path class="st0" d="M350.8,442.6c-0.4-1,0.1-3.2,1-5c1.1-2,1.4-3.4,0.6-3.9c-2.1-1.2-1.3-2.7,1.8-3.4c1.6-0.4,3.6-1.4,4.4-2.2
		c1.6-1.8,9.1-2.1,10.2-0.4c0.4,0.6-0.1,2.2-1.1,3.6c-1,1.4-1.9,3.8-1.9,5.4c0,2.5-0.8,3.2-5.1,4.6c-2.8,0.9-6,2-7.1,2.4
		C352.3,444.1,351.3,443.8,350.8,442.6z"/>
	<path class="st0" d="M373,431.6c0-0.3,0.5-0.8,1.2-1.2c0.7-0.4,1.2-0.2,1.2,0.5s-0.5,1.2-1.2,1.2C373.6,432.1,373,431.9,373,431.6z
		"/>
	<path class="st0" d="M-163.7,426.3c-1.2-1.3-1.1-1.9,0.4-3c2.5-1.9,3.7-0.6,2.2,2.3C-162.1,427.6-162.4,427.7-163.7,426.3
		L-163.7,426.3z"/>
	<path class="st0" d="M-165.6,418c-0.4-0.6,0.1-1.7,1.1-2.5c2-1.5,2.4-0.3,0.7,2.1C-164.5,418.5-165.2,418.7-165.6,418z"/>
	<path class="st0" d="M-243.8,417.3c0-0.8,3.7-2.1,8.9-3.3c2-0.4,3.1-0.3,2.7,0.2c-0.4,0.6-2.2,1.3-4,1.6c-1.8,0.3-4.3,1-5.5,1.4
		C-242.8,417.7-243.8,417.7-243.8,417.3L-243.8,417.3z"/>
	<path class="st0" d="M474.9,404.9c-2.2-0.8-1.8-2.1,0.7-2.3c1.2-0.1,2.2,0.6,2.2,1.4C477.9,405.7,477.4,405.8,474.9,404.9
		L474.9,404.9z"/>
	<path class="st0" d="M209.2,399.3c-7.7-3.8-11.3-9.7-9.1-14.6c1-2.3,1.1-3.8,0.1-5.4c-2-3.4,0.6-7.4,7.3-11.2
		c3.2-1.8,6.3-4.2,7-5.4c1.9-3.3,0.2-9-3.2-10.4c-1.7-0.7-2.6-1.8-2.3-2.7c0.9-2-3.2-9-7.2-12.4c-3-2.5-4.2-2.8-14.3-2.8
		c-13.8-0.1-16.3-0.8-16.1-4.4c0.1-1.5,0.5-2.7,0.8-2.7c0.4,0,5.2-0.5,10.9-1.2c7.2-0.8,13.7-2.5,21.7-5.6c12.4-4.8,13.4-4.9,43-4.3
		c9.4,0.2,18-0.4,29-2.1c10.3-1.6,17.9-2.2,22-1.7c3.5,0.4,8.5,0.1,11.4-0.6c6.6-1.6,23.7,0.3,30.5,3.5c4,1.9,6.1,2.1,12.8,1.5
		c7.3-0.7,7.8-0.6,5.6,0.9c-1.3,0.9-5.4,2-9.1,2.4c-7.9,1-15.2,6.1-13.3,9.4c0.8,1.4,0.2,2.6-2.5,5c-2,1.7-3.8,3.9-4.2,4.9
		c-0.8,2.4-11.5,6.9-16.8,7.1c-5.9,0.2-6.5,1.3-2,3.6c2.2,1.1,5.3,2.9,7,4.1l3.1,2.1l-2.8,0.9c-2.1,0.7-3.8,0.3-7.4-2
		c-4.8-3-10-3.1-7.2,0c1.1,1.2,0.8,1.6-1.2,2.1c-4.5,1.1-1.3,3.2,3.6,2.4c3.2-0.5,4.9-0.2,5.9,0.9c1.2,1.3-0.4,1.9-9.2,3.6
		c-5.8,1.1-13.6,2.1-17.2,2.1c-6.8,0.1-11.7,1.9-18.9,6.9c-2.3,1.6-7.3,3.2-13.2,4.3c-12.2,2.1-16.3,4.6-23.7,14.2
		c-5.9,7.7-9.5,10.5-13.2,10.6C216,402.3,212.5,400.9,209.2,399.3L209.2,399.3z"/>
	<path class="st0" d="M123.4,391.9c-2.6-1.5-5.8-4.2-7.1-6c-2.5-3.6-4.9-4.1-11.7-2.3c-2.3,0.6-4.9,0.7-5.9,0.1
		c-3.6-1.8,2.9-3.6,10.1-2.8c5.5,0.6,6.7,0.4,7.3-1.1c1.3-3.1,7.2-5.2,10.4-3.9c2,0.8,3.8,0.8,6.4-0.1c3.5-1.2,3.5-1.3,1.2-2.8
		c-1.3-0.9-2.8-1.6-3.3-1.6c-0.5,0-2.4-2.2-4.1-4.9c-1.7-2.7-5-6-7.2-7.2c-3.8-2.2-4.3-2.2-7.7-0.6c-3,1.4-4.7,1.5-9.4,0.5
		c-3.2-0.7-7.6-0.9-9.9-0.5c-3.9,0.7-11-1.1-11-2.7c0-3,10.2-9.6,16.3-10.6l4.8-0.8l-3.5,3.4c-4.8,4.6-3,6.8,2.2,2.6
		c2.2-1.8,6-3.5,8.4-4c3.7-0.6,5.3-0.2,10,2.6c6.2,3.8,6.7,3.9,10.2,2.2c2.1-1,2.9-0.8,5.2,1.9c1.6,1.8,5.1,3.8,8.6,4.8
		c5.5,1.6,5.9,1.9,5.9,5.4c0,2.6,0.8,4.3,2.8,5.5c8.1,5.3,7.9,5.1,6.2,7.6c-2.4,3.5-4.3,3.8-9.6,1.3c-3.7-1.7-5.3-2-7.2-1.1
		c-2.3,1.1-2.3,1.4-0.5,4.6c1.5,2.7,1.6,4,0.6,6.1c-1.3,2.5-1.5,2.6-4.9,1c-6.7-3.2-11.3-1.1-5,2.3c2,1.1,3.3,2.3,3,2.8
		C134.1,395.4,128.1,394.5,123.4,391.9L123.4,391.9z"/>
	<ellipse class="st0" cx="373.6" cy="393.3" rx="1.8" ry="0.9"/>
	<path class="st0" d="M77.8,387.4c-2.4-1.1-4.2-1.2-7.6-0.4c-5.7,1.4-7.7,0.4-4.8-2.5c3.7-3.7,6.2-4.5,10.6-3.1
		c5,1.5,7.2,3.8,5.9,5.9C81.1,388.6,80.5,388.7,77.8,387.4z"/>
	<path class="st0" d="M318,386.9c-2-1.2-4.5-1.9-5.6-1.6c-1.5,0.4-1.9,0.1-1.4-1.6c0.7-2.5,11.3-6.1,14.9-5.1
		c1.3,0.4,4.5,0.1,7.1-0.7c4.2-1.1,5.3-1.1,8.1,0.6l3.3,2l-2.9,2.1c-2.5,1.7-7,3.3-18,6C322.5,388.8,320,388.1,318,386.9z"/>
	<path class="st0" d="M-10.4,366.2c-1.7-0.2-5.7-1.5-9-2.9l-6-2.5l8.4-0.6c4.6-0.3,8.4-1,8.4-1.7s-3.3-1.4-7.3-1.7
		c-5.3-0.4-6.3-0.7-3.6-1.1c4.4-0.6,4.7-2.4,0.6-3.3c-3-0.7-2.9-0.7,1.2-2.4c7.2-2.8,15-3.4,21.8-1.5c5.6,1.5,6.5,1.5,9.1-0.1
		c1.9-1.1,3-1.3,3.1-0.5c0.1,0.7,0.2,1.8,0.3,2.5c0.3,2.4,2.7,2.1,5.6-0.7c2.7-2.6,7.3-3.8,7.3-2c0,0.5-1.1,2.4-2.4,4.4l-2.4,3.6
		l3.9,1.9l3.9,1.9l-6.4,2.7c-5.8,2.4-7,2.5-12.2,1.4c-5-1.1-6.5-1-11.5,1C-3.2,366.9-4.4,367.1-10.4,366.2L-10.4,366.2z"/>
	<path class="st0" d="M38.1,365.5c-1.1-1.2-0.6-1.8,2.2-2.9c2-0.7,4.8-1,6.3-0.6c2.6,0.8,2.6,0.9-1.4,2.8
		C40.1,367.3,39.9,367.4,38.1,365.5L38.1,365.5z"/>
	<path class="st0" d="M371.8,360.3c2.3-1.4,3.6-1.4,3.6,0c0,0.6-1.2,1.1-2.7,1.1C370.5,361.4,370.4,361.2,371.8,360.3z"/>
	<path class="st0" d="M593.8,357.3c-6.2-2.2-6.1-2.1-4.3-4.1c0.8-0.9,1.1-1.7,0.5-1.7c-0.6,0,0-0.8,1.4-1.7c1.3-0.9,2.4-2,2.4-2.4
		c0-1.6,5-5.9,8.4-7.4c2-0.8,7.2-1.8,11.5-2.1c4.3-0.3,10.1-0.9,12.9-1.3c2.9-0.4,5.3-0.2,5.8,0.4c0.9,1.3-0.8,1.8-10.2,3.3
		c-9.3,1.5-14.9,3.9-18.6,7.9c-3.9,4.2-4,6.9-0.4,9.1l2.7,1.7l-3.6,0C600.2,359.1,596.4,358.2,593.8,357.3L593.8,357.3z"/>
	<path class="st0" d="M-39.7,354.1c-2-1.8-1.5-2.2,7.9-6.8c11-5.5,16.5-6.2,26.3-3.5l5.4,1.5l-7.3,1.3c-5.9,1.1-18.5,4.9-28.4,8.7
		C-36.8,355.7-38.5,355.1-39.7,354.1z"/>
	<path class="st0" d="M47.7,352.7c0-0.6-1.5-1.9-3.3-2.8l-3.3-1.7l4.5,0.6c3.2,0.5,4.7,0.2,5.4-0.9c0.8-1.3,8.5-4,11.6-4
		c0.5,0,0.1,1.5-0.9,3.3C59.2,351.4,47.7,356,47.7,352.7L47.7,352.7z"/>
	<path class="st0" d="M66.5,349.4c-1.7-2.6,10.1-6.5,15.1-5.1c3.7,1.1,1.2,2.9-5.2,3.9c-2.9,0.4-6.1,1.1-7.2,1.6
		S66.9,350.1,66.5,349.4L66.5,349.4z"/>
	<path class="st0" d="M105.1,341.3c-8-0.6-14.7-1.2-14.8-1.3c-1.1-0.9,1.6-3.9,4.5-5c2.9-1.1,4.2-0.9,8.1,0.9
		c3.8,1.8,6.3,2.1,13.3,1.6c4.8-0.3,10.2-0.2,12.1,0.2l3.4,0.8l-4.2,2.1c-2.3,1.1-5,2-6,1.9S113.1,341.9,105.1,341.3L105.1,341.3z"
		/>
	<path class="st0" d="M453.2,336.8c-5.9-2.8-6.5-4-1.8-4.1c1.8,0,4.1-0.6,5.1-1.2c1.6-1,1.5-1.1-0.2-0.6c-1.1,0.3-2.6,0-3.4-0.7
		c-1.1-1-1.6-1-2.3,0.1c-0.6,1-2,1.1-4.5,0.4c-6.4-1.7-7.8-2.5-7.8-4.2c0-1.5,1.6-1.6,11.5-1c7.5,0.5,11.5,0.3,11.5-0.4
		c0-2.2,3.4-1.1,4.2,1.4l0.9,2.5l0.5-2.5c0.3-1.4,1.3-2.5,2.3-2.5c1,0,1.7-0.6,1.7-1.3c0-1,0.3-1,1.5,0c0.8,0.8,4.9,1.3,9.7,1.3
		c8.6,0,10.7,1.4,4.9,3.4c-3,1-8.2,0.7-13.9-0.8c-1.2-0.3-2.1-0.2-2.1,0.3c0,1,6.8,4.8,8.6,4.8c0.7,0,2,0.7,2.9,1.5
		c1.5,1.3,1.4,1.6-0.1,2.2c-1,0.3-1.8,0.1-1.8-0.6c0-0.8-1.5-0.9-4.4-0.4c-3,0.5-4.1,0.4-3.5-0.5c0.5-0.7,0.2-1.9-0.6-2.8
		c-1.6-1.7-6-2.2-6-0.7c0,0.5-1.8,2.7-3.9,4.9l-3.9,4L453.2,336.8L453.2,336.8z"/>
	<path class="st0" d="M132.4,334.4c-2.1-1.1-5.1-1.4-9.7-1.1c-4.3,0.4-7.6,0-9.4-0.9c-2.5-1.3-1.9-1.4,5.7-1.4
		c9.4,0.1,13.6-1.8,8.5-3.8c-2.4-0.9-2.1-1,2.1-0.5c5.4,0.7,7.6-0.6,4.6-2.9c-3.2-2.4,0.3-3.1,11.6-2.5c7,0.4,11.3,0.2,13.1-0.7
		c3.4-1.7,2.1-3.8-1.8-2.9c-2.7,0.6-21.5-0.4-20.7-1.1c0.6-0.5,27.2-2.8,44.6-3.8c9.1-0.5,19.1-1.3,22.4-1.6l5.9-0.7l-9.8,4.3
		c-9.1,4-24,7.9-30.1,7.9c-1.5,0-5.8,1.5-9.5,3.3c-3.7,1.8-7.5,3.3-8.5,3.3s-4.9,1.5-8.8,3.3s-7.1,3.3-7.1,3.3
		C135.4,336,134,335.2,132.4,334.4L132.4,334.4z"/>
	<path class="st0" d="M108.8,324.3c-5.9-1.2-6.1-1.6-1.8-3.7c6.3-3,12.2-3.7,14.9-1.9c2.1,1.4,2,1.7-2.2,3.9
		C115.4,325,113.6,325.2,108.8,324.3z"/>
</g>
</svg>
